<svg version="1.1" xmlns="http://www.w3.org/2000/svg" xmlns:xlink="http://www.w3.org/1999/xlink" style="display: none;width: 0; height: 0;">

  <symbol id="i-caret" width="9" height="6" viewBox="0 0 9 6" xmlns="http://www.w3.org/2000/svg"><path d="M7.339.285L4.5 3.125 1.662.285A.973.973 0 1 0 .285 1.662l3.527 3.527c.38.38.996.38 1.376 0l3.527-3.527A.973.973 0 1 0 7.339.285z" fill-rule="nonzero"/></symbol>

  <symbol id="i-close" width="18" height="18" viewBox="0 0 18 18" xmlns="http://www.w3.org/2000/svg"><title>Close</title><path d="M13.076 2.263L9 6.34 4.923 2.262a.896.896 0 0 0-1.267 0L2.262 3.657a.896.896 0 0 0 0 1.267L6.34 9l-4.077 4.077a.895.895 0 0 0 0 1.266l1.394 1.394c.35.35.917.35 1.267 0L9 11.66l4.076 4.077c.35.35.917.35 1.267 0l1.394-1.395a.895.895 0 0 0 0-1.266L11.66 9l4.077-4.076a.896.896 0 0 0 0-1.267l-1.394-1.395a.895.895 0 0 0-1.267.001z" /></symbol>

  <symbol id="i-top" width="36" height="36" viewBox="0 0 36 36" xmlns="http://www.w3.org/2000/svg"><title>Back to top</title><path d="M18 0C8.076 0 0 8.075 0 18s8.076 18 18 18c9.927 0 18-8.075 18-18S27.927 0 18 0zm-.188 3c8.168 0 14.812 6.645 14.812 14.812 0 8.168-6.644 14.812-14.812 14.812C9.645 32.624 3 25.98 3 17.812 3 9.645 9.645 3 17.812 3zM18 9c-.472 0-.945.18-1.305.541l-7.153 7.145a1.846 1.846 0 1 0 2.612 2.613l3.996-3.993v10.297a1.848 1.848 0 1 0 3.696 0v-10.3l4 3.995a1.847 1.847 0 1 0 2.613-2.613l-7.154-7.142A1.837 1.837 0 0 0 18 9.002V9z" fill-rule="nonzero"/></symbol>

  <symbol id="i-search" width="18" height="18" viewBox="0 0 18 18" xmlns="http://www.w3.org/2000/svg"><title>Search</title><path d="M11.875 12.43l-.442-.443a6.848 6.848 0 0 1-4.531 1.737 6.862 6.862 0 1 1 6.822-6.864 6.852 6.852 0 0 1-1.662 4.487l.432.431a1.261 1.261 0 0 1 1.407.26l3.764 3.764c.492.492.399 1.383 0 1.782a1.26 1.26 0 0 1-1.783 0l-3.764-3.764c-.365-.365-.408-.95-.243-1.39zM6.902 1.82A5.042 5.042 0 1 0 11.9 6.86a5.025 5.025 0 0 0-4.998-5.04z" /></symbol>

  <symbol id="s-facebook" width="32" height="32" viewBox="0 0 32 32" xmlns="http://www.w3.org/2000/svg"><title>Facebook</title><path d="M30.667 0H1.334C.597 0 0 .597 0 1.333v29.334C0 31.403.597 32 1.334 32H17V20h-4v-5h4v-4c0-4.133 2.617-6.167 6.304-6.167 1.766 0 3.284.132 3.726.19v4.32l-2.557.001c-2.005 0-2.473.953-2.473 2.351V15h5l-1 5h-4l.08 12h8.587c.736 0 1.333-.597 1.333-1.333V1.333C32 .597 31.403 0 30.667 0" fill="currentColor" fill-rule="evenodd"/></symbol>

  <symbol id="s-instagram" width="32" height="32" viewBox="0 0 32 32" xmlns="http://www.w3.org/2000/svg"><title>Instagram</title><path d="M28 29H4a1 1 0 0 1-1-1V13h4c-.521.75-.697 2.149-.697 3.037 0 5.355 4.367 9.712 9.734 9.712 5.368 0 9.735-4.357 9.735-9.712 0-.888-.126-2.266-.772-3.037h4v15a1 1 0 0 1-1 1M16.037 9.898c3.399 0 6.154 2.749 6.154 6.139 0 3.391-2.755 6.14-6.154 6.14-3.398 0-6.153-2.749-6.153-6.14 0-3.39 2.755-6.139 6.153-6.139M24 4h3a1 1 0 0 1 1 1v3a1 1 0 0 1-1 1h-3a1 1 0 0 1-1-1V5a1 1 0 0 1 1-1m4.196-4H3.804A3.8 3.8 0 0 0 0 3.795v24.41A3.8 3.8 0 0 0 3.804 32h24.392A3.8 3.8 0 0 0 32 28.205V3.795A3.8 3.8 0 0 0 28.196 0" fill="currentColor" fill-rule="evenodd"/></symbol>

  <symbol id="s-pinterest" width="32" height="32" viewBox="0 0 32 32" xmlns="http://www.w3.org/2000/svg"><title>Pinterest</title><path d="M16 0C7.163 0 0 7.163 0 16c0 6.778 4.217 12.568 10.169 14.899-.14-1.266-.266-3.208.056-4.59.29-1.248 1.876-7.953 1.876-7.953s-.479-.958-.479-2.375c0-2.225 1.29-3.886 2.895-3.886 1.365 0 2.025 1.025 2.025 2.254 0 1.373-.874 3.425-1.325 5.327-.377 1.593.798 2.892 2.369 2.892 2.844 0 5.03-2.999 5.03-7.327 0-3.831-2.753-6.51-6.684-6.51-4.552 0-7.224 3.415-7.224 6.944 0 1.375.529 2.85 1.19 3.651.131.159.15.297.111.459-.121.506-.391 1.592-.444 1.815-.07.292-.232.355-.535.214-1.999-.931-3.248-3.852-3.248-6.199 0-5.047 3.667-9.682 10.572-9.682 5.55 0 9.864 3.955 9.864 9.241 0 5.514-3.477 9.952-8.303 9.952-1.621 0-3.145-.843-3.667-1.838 0 0-.802 3.055-.997 3.804-.361 1.389-1.336 3.131-1.989 4.194C12.76 31.75 14.351 32 16 32c8.837 0 16-7.164 16-16 0-8.837-7.163-16-16-16" fill="currentColor" fill-rule="evenodd"/></symbol>

  <symbol id="s-twitter" width="32" height="32" viewBox="0 0 32 32" xmlns="http://www.w3.org/2000/svg"><title>Twitter</title><path d="M32 6.078a13.14 13.14 0 0 1-3.771 1.034 6.584 6.584 0 0 0 2.887-3.632 13.166 13.166 0 0 1-4.169 1.593A6.557 6.557 0 0 0 22.155 3a6.565 6.565 0 0 0-6.565 6.565c0 .514.058 1.015.17 1.496a18.639 18.639 0 0 1-13.532-6.86 6.539 6.539 0 0 0-.889 3.301 6.563 6.563 0 0 0 2.92 5.464 6.532 6.532 0 0 1-2.973-.821l-.001.083a6.568 6.568 0 0 0 5.267 6.437 6.578 6.578 0 0 1-2.965.113 6.571 6.571 0 0 0 6.133 4.559 13.172 13.172 0 0 1-8.154 2.81c-.53 0-1.052-.031-1.566-.091a18.587 18.587 0 0 0 10.064 2.949c12.076 0 18.679-10.004 18.679-18.679 0-.285-.006-.568-.019-.85A13.315 13.315 0 0 0 32 6.078" fill="currentColor" fill-rule="evenodd"/></symbol>
  
  <symbol id="s-youtube" width="32" height="32" viewBox="0 0 32 32" xmlns="http://www.w3.org/2000/svg"><title>YouTube</title><path d="M12.696 20.404l-.001-8.991 8.646 4.511-8.645 4.48zM31.68 9.855s-.313-2.205-1.272-3.176c-1.217-1.275-2.581-1.281-3.206-1.355C22.724 5 16.007 5 16.007 5h-.014s-6.717 0-11.195.324c-.626.074-1.989.08-3.207 1.355C.632 7.65.32 9.855.32 9.855S0 12.445 0 15.034v2.428c0 2.59.32 5.179.32 5.179s.312 2.205 1.271 3.176c1.218 1.275 2.817 1.235 3.529 1.368 2.56.246 10.88.322 10.88.322s6.724-.01 11.202-.334c.625-.075 1.989-.081 3.206-1.356.959-.971 1.272-3.176 1.272-3.176s.32-2.589.32-5.179v-2.428c0-2.589-.32-5.179-.32-5.179z" fill="currentColor" fill-rule="evenodd"/></symbol>
</svg>
