<svg width="256" height="256" viewBox="0 0 256 256" xmlns="http://www.w3.org/2000/svg"><title>Shape</title><path d="M5.318 115.11L115.098 5.33c3.55-3.55 8.23-5.33 12.9-5.33s9.35 1.78 12.9 5.33l109.78 109.78c2.35 2.35 3.93 5.23 4.72 8.29.27 1.04.45 2.05.53 3 .46 5.19-1.29 10.55-5.26 14.51l-109.78 109.78c-.98.98-2.07 1.83-3.24 2.56-1.13.7-2.34 1.28-3.61 1.72-6.41 2.24-13.85.82-18.95-4.29L5.31 140.9c-2.35-2.35-3.93-5.23-4.72-8.29-1.57-6.06 0-12.79 4.72-17.51l.01.01zm36.91 4.03c13.54 2.36 30.07 9.69 37.73 12.48 2.93-.93 6.14-1.8 9.58-2.62 3.86-.92 1.91-4.7 1.78-7.11-.13-2.39.58-2.06 2.77-1.15 2.44 1 3.92 2.97 6.21 3.88 6.02.68 17.02-3.7 34.25-4.83 2.76-.18 6.5-4.67 6.94-6.71.66-3.04.54-7 .31-9.58-.24-2.76 1.45-2.95 4.08-1.88 3.98 1.61 9.94 9.52 12.53 13.92 1.34 2.28.61 2.26 3.08 2.64 23.61 3.6 42.16 12.09 49.658 15.15 8.7 4.58 5.91 4.55.86 7.04-4.33 1.24-8.08 3.55-13.05 3.76-5.52.23-11.01.9-16.52.92-9.22 22.84-10.51-.67-16.55-.36-13.25.68-26.7-1.72-39.01-3.07-7.94 5.26-9.5 2.59-15.51-2.68-3.71-.12-5.13-.78-8.6-.01-1.09.24-2.41.82-3.11 1.7-1.51 1.91-3.25 3.58-5.16 5.04-1.05.8-3.4 1.83-2.22-1.6 1.46-4.24-2.97-5.93-7.07-5.71-1.37.07-3.31-.36-4.47.84-5.23 5.4-6.09 10.76-10.39 13.88 0 0-9.93 6.7-3.47-5.43 5.61-10.53-8.57-6.06-20.6-19.74-2.31-2.62-1.19-2.11-5.22-5.87-2.42-2.26-2.74-3.63 1.18-2.88l-.008-.02zm79.83-106.85L12.28 122.07c-2.18 2.18-2.91 5.29-2.18 8.09.36 1.37 1.08 2.69 2.18 3.79l109.78 109.78c2.36 2.36 5.8 3.02 8.76 1.98.55-.19 1.1-.46 1.65-.8.5-.31.99-.71 1.47-1.18l109.78-109.78c1.82-1.82 2.62-4.3 2.41-6.7-.05-.52-.12-.99-.23-1.39-.36-1.37-1.08-2.69-2.18-3.79L133.94 12.29c-1.63-1.63-3.78-2.44-5.94-2.44-2.16 0-4.31.81-5.94 2.44z" fill="#0432FE" fill-rule="nonzero"/></svg>